# xmcd CD database file
#
# Track frame offsets:
#	150
#	22622
#	43052
#	72882
#	95312
#	136545
#	164425
#	191782
#	215602
#	251095
#
# Disc length: 3854 seconds
#
# Revision: 0
# Processed by: cddbd v1.5PL3 Copyright (c) Steve Scherf et al.
# Submitted via: CDex 1.51
#
DISCID=830f0c0a
DTITLE=David Carr Jr. - In Too Deep (Groove Disc 2)
DYEAR=2001
DGENRE=Jazz
TTITLE0=In Too Deep
TTITLE1=Tabu
TTITLE2=D-Funk
TTITLE3=Brand New Groove
TTITLE4=East and West
TTITLE5=Let's Dance
TTITLE6=Ghost Dance
TTITLE7=4-Corners
TTITLE8=Watch Me Work
TTITLE9=Brand New Groove Mega-Mix
EXTD=YEAR: 2001
EXTT0=
EXTT1=
EXTT2=
EXTT3=
EXTT4=
EXTT5=
EXTT6=
EXTT7=
EXTT8=
EXTT9=
PLAYORDER=
